<svg width="20" height="20" viewBox="0 0 20 20" fill="none" xmlns="http://www.w3.org/2000/svg">
<path d="M2.5 2.5L5.5 2.5L5.5 10C5.5 10.828 6.172 11.5 7 11.5L14.419 11.5C15.065 11.5 15.638 11.087 15.842 10.474L17.5 5.5L5.5 5.5" stroke="white" stroke-linecap="round" stroke-linejoin="round"/>
<path d="M6 17.5C6.82843 17.5 7.5 16.8284 7.5 16C7.5 15.1716 6.82843 14.5 6 14.5C5.17157 14.5 4.5 15.1716 4.5 16C4.5 16.8284 5.17157 17.5 6 17.5Z" stroke="white" stroke-linecap="round" stroke-linejoin="round"/>
<path d="M15 17.5C15.8284 17.5 16.5 16.8284 16.5 16C16.5 15.1716 15.8284 14.5 15 14.5C14.1716 14.5 13.5 15.1716 13.5 16C13.5 16.8284 14.1716 17.5 15 17.5Z" stroke="white" stroke-linecap="round" stroke-linejoin="round"/>
</svg>
