<svg width="46" height="46" viewBox="0 0 46 46" fill="none" xmlns="http://www.w3.org/2000/svg">
<path d="M27.3551 14.1784C26.381 10.511 22.5619 9.1839 18.4 11.5C13.5746 8.81475 9.2 11.0193 9.2 16.1C9.2 18.4046 9.66805 20.3147 10.4685 21.85" stroke="#62CD14" stroke-width="2.76" stroke-miterlimit="10"/>
<path d="M21.85 5.75H21.275C19.6869 5.75 18.4 7.03685 18.4 8.625V10.35" stroke="#62CD14" stroke-width="2.76" stroke-miterlimit="10" stroke-linecap="square"/>
<path d="M33.3512 21.85C34.3597 20.3021 35.3188 18.7485 36.1836 17.25C37.4544 15.0501 36.7 12.2372 34.5 10.9664C32.3001 9.69565 29.4872 10.4501 28.2164 12.65C26.5823 15.4813 24.9424 18.7013 23.5095 21.85" stroke="#62CD14" stroke-width="2.76" stroke-miterlimit="10"/>
<path d="M34.5 5.75L33.6835 10.5984C33.9618 10.6939 34.2355 10.8135 34.5 10.9664C34.9163 11.2068 35.2636 11.5161 35.5718 11.8531L40.25 10.3167" stroke="#62CD14" stroke-width="2.76" stroke-miterlimit="10"/>
<path d="M40.25 21.85L5.75 21.85L5.75 40.25L40.25 40.25L40.25 21.85Z" stroke="#62CD14" stroke-width="2.76" stroke-miterlimit="10" stroke-linecap="square"/>
<path d="M18.4 27.6L27.6 27.6" stroke="#62CD14" stroke-width="2.76" stroke-miterlimit="10" stroke-linecap="square"/>
</svg>
